<svg width="2000" height="1143" viewBox="0 0 2000 1143" fill="none" xmlns="http://www.w3.org/2000/svg">
<g clip-path="url(#clip0_1_3)">
<rect width="2000" height="1143" fill="white"/>
<circle cx="181.5" cy="295.5" r="348.5" fill="#FFF8F2"/>
<circle cx="181" cy="295" r="216" fill="white"/>
<path d="M311 712L-3 712V1147H649V1010.5C623.5 785 411 705 311 712Z" stroke="#ECDDC8" stroke-width="3"/>
<path d="M324.5 749.682L-3 749.682V1147H614V1031.5C600 817.5 409 743.5 324.5 749.682Z" stroke="#ECDDC8" stroke-width="3"/>
<path d="M325 783.623H-3V1147H577L579 1029.5C560 845.5 404.5 783.623 325 783.623Z" stroke="#ECDDC8" stroke-width="3"/>
<path d="M326 819.562H-3V1147H542V1018.38C519.5 877.5 407.5 823.5 326 819.562Z" stroke="#ECDDC8" stroke-width="3"/>
<path d="M317 855.5L-3 855.998V1146.5H508V1032.39C497.5 909.5 387.5 852.5 317 855.5Z" stroke="#ECDDC8" stroke-width="3"/>
<circle cx="83" cy="572" r="305" fill="#FFD7D7"/>
<circle cx="387.5" cy="509.5" r="82.5" fill="#C7E9D8"/>
<circle cx="234.5" cy="62.5" r="6.5" fill="#394150"/>
<circle cx="291.5" cy="62.5" r="6.5" fill="#394150"/>
<circle cx="348.5" cy="62.5" r="6.5" fill="#394150"/>
<circle cx="405.5" cy="62.5" r="6.5" fill="#394150"/>
<circle cx="462.5" cy="62.5" r="6.5" fill="#394150"/>
<circle cx="234.5" cy="119.5" r="6.5" fill="#394150"/>
<circle cx="291.5" cy="119.5" r="6.5" fill="#394150"/>
<circle cx="348.5" cy="119.5" r="6.5" fill="#394150"/>
<circle cx="405.5" cy="119.5" r="6.5" fill="#394150"/>
<circle cx="462.5" cy="119.5" r="6.5" fill="#394150"/>
<circle cx="234.5" cy="176.5" r="6.5" fill="#394150"/>
<circle cx="291.5" cy="176.5" r="6.5" fill="#394150"/>
<circle cx="348.5" cy="176.5" r="6.5" fill="#394150"/>
<circle cx="405.5" cy="176.5" r="6.5" fill="#394150"/>
<circle cx="462.5" cy="176.5" r="6.5" fill="#394150"/>
<circle cx="234.5" cy="233.5" r="6.5" fill="#394150"/>
<circle cx="291.5" cy="233.5" r="6.5" fill="#394150"/>
<circle cx="348.5" cy="233.5" r="6.5" fill="#394150"/>
<circle cx="405.5" cy="233.5" r="6.5" fill="#394150"/>
<circle cx="462.5" cy="233.5" r="6.5" fill="#394150"/>
<circle cx="234.5" cy="290.5" r="6.5" fill="#394150"/>
<circle cx="291.5" cy="290.5" r="6.5" fill="#394150"/>
<circle cx="348.5" cy="290.5" r="6.5" fill="#394150"/>
<circle cx="405.5" cy="290.5" r="6.5" fill="#394150"/>
<circle cx="462.5" cy="290.5" r="6.5" fill="#394150"/>
<circle cx="234.5" cy="347.5" r="6.5" fill="#394150"/>
<circle cx="291.5" cy="347.5" r="6.5" fill="#394150"/>
<circle cx="348.5" cy="347.5" r="6.5" fill="#394150"/>
<circle cx="405.5" cy="347.5" r="6.5" fill="#394150"/>
<circle cx="462.5" cy="347.5" r="6.5" fill="#394150"/>
<circle cx="242" cy="420" r="17.5" stroke="#394150" stroke-width="5"/>
<path d="M38 240L74 276" stroke="#394150" stroke-width="4" stroke-linecap="round"/>
<path d="M73 240L38 275" stroke="#394150" stroke-width="4" stroke-linecap="round"/>
<path d="M1867.55 316.331L2181.55 318.418L2184.44 -116.572L1532.45 -120.906L1531.54 15.5906C1555.55 241.255 1767.51 322.666 1867.55 316.331Z" stroke="#ECDDC8" stroke-width="3"/>
<path d="M1854.3 278.56L2181.8 280.738L2184.44 -116.572L1567.45 -120.674L1566.68 -5.17624C1579.26 208.912 1769.76 284.18 1854.3 278.56Z" stroke="#ECDDC8" stroke-width="3"/>
<path d="M1854.03 244.616L2182.02 246.797L2184.44 -116.572L1604.45 -120.428L1601.67 -2.94365C1619.45 181.179 1774.53 244.088 1854.03 244.616Z" stroke="#ECDDC8" stroke-width="3"/>
<path d="M1853.27 208.672L2182.26 210.859L2184.44 -116.572L1639.45 -120.195L1638.59 8.41851C1660.16 149.449 1771.8 204.192 1853.27 208.672Z" stroke="#ECDDC8" stroke-width="3"/>
<path d="M1862.51 172.794L2182.5 174.423L2184.43 -116.072L1673.45 -119.469L1672.69 -5.36372C1682.37 117.595 1791.99 175.325 1862.51 172.794Z" stroke="#ECDDC8" stroke-width="3"/>
<circle cx="529" cy="1082" r="17.5" stroke="#394150" stroke-width="5"/>
<rect x="1503" y="233" width="782" height="782" rx="391" fill="#E9EDF6"/>
<circle cx="1893.5" cy="624" r="242.5" fill="white"/>
<circle cx="1863" cy="333" r="196" fill="#FFDDB7"/>
<circle cx="1698.5" cy="748.5" r="3.5" fill="#F27039"/>
<circle cx="1734.5" cy="748.5" r="3.5" fill="#F27039"/>
<circle cx="1770.5" cy="748.5" r="3.5" fill="#F27039"/>
<circle cx="1806.5" cy="748.5" r="3.5" fill="#F27039"/>
<circle cx="1842.5" cy="748.5" r="3.5" fill="#F27039"/>
<circle cx="1698.5" cy="783.5" r="3.5" fill="#F27039"/>
<circle cx="1734.5" cy="783.5" r="3.5" fill="#F27039"/>
<circle cx="1770.5" cy="783.5" r="3.5" fill="#F27039"/>
<circle cx="1806.5" cy="783.5" r="3.5" fill="#F27039"/>
<circle cx="1842.5" cy="783.5" r="3.5" fill="#F27039"/>
<circle cx="1698.5" cy="818.5" r="3.5" fill="#F27039"/>
<circle cx="1734.5" cy="818.5" r="3.5" fill="#F27039"/>
<circle cx="1770.5" cy="818.5" r="3.5" fill="#F27039"/>
<circle cx="1806.5" cy="818.5" r="3.5" fill="#F27039"/>
<circle cx="1842.5" cy="818.5" r="3.5" fill="#F27039"/>
<circle cx="1698.5" cy="853.5" r="3.5" fill="#F27039"/>
<circle cx="1734.5" cy="853.5" r="3.5" fill="#F27039"/>
<circle cx="1770.5" cy="853.5" r="3.5" fill="#F27039"/>
<circle cx="1806.5" cy="853.5" r="3.5" fill="#F27039"/>
<circle cx="1842.5" cy="853.5" r="3.5" fill="#F27039"/>
<circle cx="1698.5" cy="888.5" r="3.5" fill="#F27039"/>
<circle cx="1734.5" cy="888.5" r="3.5" fill="#F27039"/>
<circle cx="1770.5" cy="888.5" r="3.5" fill="#F27039"/>
<circle cx="1806.5" cy="888.5" r="3.5" fill="#F27039"/>
<circle cx="1842.5" cy="888.5" r="3.5" fill="#F27039"/>
</g>
<defs>
<clipPath id="clip0_1_3">
<rect width="2000" height="1143" fill="white"/>
</clipPath>
</defs>
</svg>
